<svg width="250" height="269" viewBox="0 0 250 269" fill="none" xmlns="http://www.w3.org/2000/svg">
<path d="M235.198 62.4371C235.56 62.2262 235.86 61.9243 236.068 61.5614C236.277 61.1985 236.386 60.7873 236.386 60.3688C236.386 59.9504 236.277 59.5392 236.068 59.1763C235.86 58.8134 235.56 58.5115 235.198 58.3006L143.765 5.17889C137.915 1.78781 131.272 0.00195312 124.51 0.00195312C117.748 0.00195312 111.106 1.78781 105.256 5.17889L13.8401 58.3006C13.4786 58.5115 13.1787 58.8134 12.9703 59.1763C12.7619 59.5392 12.6522 59.9504 12.6522 60.3688C12.6522 60.7873 12.7619 61.1985 12.9703 61.5614C13.1787 61.9243 13.4786 62.2262 13.8401 62.4371L123.316 126.837C123.684 127.054 124.104 127.168 124.531 127.168C124.959 127.168 125.378 127.054 125.746 126.837L235.198 62.4371ZM3.59166 78.7256C3.22651 78.5147 2.81217 78.4041 2.39053 78.4047C1.96889 78.4054 1.5549 78.5174 1.19043 78.7294C0.825957 78.9414 0.523931 79.2459 0.314886 79.6121C0.105842 79.9782 -0.00280676 80.3931 -7.16789e-05 80.8148V184.909C0.00896574 189.925 1.33108 194.852 3.83478 199.199C6.33848 203.546 9.93652 207.161 14.2711 209.686L111.344 267.89C111.707 268.1 112.12 268.211 112.54 268.211C112.96 268.211 113.373 268.101 113.737 267.891C114.101 267.681 114.403 267.379 114.614 267.015C114.824 266.652 114.935 266.239 114.935 265.819V145.047C114.935 144.627 114.824 144.215 114.614 143.851C114.404 143.488 114.102 143.186 113.738 142.976L3.59166 78.7256ZM134.091 145.466V265.789C134.092 266.209 134.203 266.622 134.413 266.985C134.623 267.349 134.926 267.651 135.29 267.861C135.653 268.071 136.066 268.181 136.486 268.181C136.906 268.181 137.319 268.07 137.683 267.86L234.75 209.656C239.081 207.135 242.677 203.524 245.182 199.183C247.686 194.842 249.012 189.921 249.027 184.909V80.8148C249.025 80.3952 248.913 79.9833 248.703 79.6205C248.492 79.2576 248.19 78.9566 247.826 78.7474C247.462 78.5382 247.05 78.4283 246.63 78.4287C246.21 78.4291 245.798 78.5397 245.435 78.7495L135.288 143.401C134.926 143.61 134.624 143.911 134.414 144.273C134.204 144.636 134.093 145.047 134.091 145.466V145.466Z" fill="black"/>
</svg>
