<svg width="76" height="32" viewBox="0 0 76 32" fill="none" xmlns="http://www.w3.org/2000/svg">
<path d="M29.9385 12.4299C29.5757 12.7426 29.0504 13.1991 28.3624 13.7995C27.0866 14.9252 25.4355 16.3512 23.4092 18.0773C21.3828 19.8034 19.2001 21.5796 16.8611 23.4058C14.5346 25.2445 12.2768 26.8831 10.0879 28.3215C7.89897 29.7725 5.99772 30.7794 4.38416 31.3423C2.7831 31.9052 1.69489 31.7863 1.11951 30.9858C0.644198 30.1978 0.575403 29.0658 0.913125 27.5898C1.25085 26.1138 1.88877 24.5003 2.82688 22.7491C3.765 20.998 4.90325 19.3156 6.24163 17.7021C7.59252 16.0885 9.04347 14.7564 10.5945 13.7057C12.1455 12.6425 13.6965 12.0671 15.2475 11.9796C16.7986 11.8795 18.2558 12.4799 19.6192 13.7807C19.7693 13.9308 19.8068 14.0934 19.7317 14.2686C19.6567 14.4312 19.5379 14.5688 19.3753 14.6813C19.2127 14.7689 18.9875 14.7564 18.6998 14.6438C18.4246 14.5312 18.187 14.3811 17.9868 14.1935C17.7992 14.0059 17.7554 13.837 17.8555 13.6869C16.4046 12.8489 14.866 12.7613 13.24 13.4243C11.6139 14.0747 10.0379 15.1817 8.51187 16.7452C6.99838 18.2962 5.66625 20.0036 4.51549 21.8673C3.37724 23.731 2.5517 25.4572 2.03886 27.0457C1.53854 28.6343 1.49476 29.7913 1.90753 30.5167C2.3203 31.0671 3.2334 31.0233 4.64683 30.3854C6.06026 29.7475 7.76138 28.7343 9.75018 27.3459C11.7515 25.9575 13.8216 24.4127 15.9605 22.7116C18.1119 21.023 20.1195 19.3969 21.9832 17.8334C23.8595 16.2574 25.3855 14.9628 26.5612 13.9496C26.7989 13.737 27.0178 13.5493 27.2179 13.3867C27.6807 12.9865 27.8308 12.7738 27.6682 12.7488C27.5181 12.7238 27.1616 12.7863 26.5988 12.9364C26.4362 12.974 26.261 13.0115 26.0734 13.049C25.5731 13.1741 25.1353 13.2804 24.7601 13.368C24.3848 13.4555 24.0096 13.5493 23.6343 13.6494C23.2591 13.737 22.8213 13.837 22.3209 13.9496C22.2834 14.1122 22.1771 14.1998 22.002 14.2123C21.8269 14.2248 21.6518 14.1873 21.4766 14.0997C21.3015 13.9996 21.1827 13.8745 21.1202 13.7245C21.0701 13.5744 21.1327 13.4243 21.3078 13.2742C21.4954 13.1115 21.8707 12.9677 22.4335 12.8426C24.5724 12.3173 26.7176 11.8232 28.869 11.3604C28.9566 11.3354 29.0441 11.3166 29.1317 11.3041C29.4694 11.2416 29.7133 11.1665 29.8634 11.079C30.026 10.9914 30.2324 10.8413 30.4826 10.6287C30.4951 10.6162 30.5076 10.6036 30.5201 10.5911C31.108 10.1033 31.7021 9.60299 32.3025 9.09015C33.8535 7.77679 35.4296 6.47594 37.0306 5.18759C38.6442 3.89924 40.2765 2.70471 41.9276 1.60398C42.1778 1.44138 42.5405 1.25375 43.0158 1.04111C43.4911 0.815964 43.9727 0.634595 44.4605 0.497005C44.9483 0.359414 45.3236 0.334398 45.5862 0.421955C45.8489 0.497005 45.8927 0.753423 45.7176 1.19121C45.4174 1.84164 44.8545 2.82353 44.029 4.1369C43.2034 5.43775 42.4592 6.58226 41.7963 7.57041C41.4835 8.07073 41.2584 8.42096 41.1208 8.6211C41.0833 8.68364 41.0458 8.73367 41.0082 8.77119C40.9457 8.84624 40.9144 8.90253 40.9144 8.94006C40.9144 8.97758 40.9707 8.99009 41.0833 8.97758C41.421 8.91504 41.9213 8.84624 42.5843 8.77119C43.2597 8.68364 43.9227 8.6336 44.5731 8.6211C45.236 8.60859 45.7238 8.66487 46.0365 8.78996C46.2117 8.90253 46.3055 9.0151 46.318 9.12768C46.343 9.22774 46.2992 9.30279 46.1866 9.35283C46.0866 9.39035 45.9552 9.37159 45.7926 9.29654C45.58 9.22149 45.1422 9.22149 44.4793 9.29654C43.8163 9.35908 43.1284 9.44664 42.4154 9.55921C41.715 9.67179 41.1959 9.75934 40.8581 9.82189C40.8206 9.83439 40.7831 9.84065 40.7456 9.84065C40.5329 9.87817 40.3703 9.94697 40.2577 10.047C40.1577 10.1471 40.0639 10.2847 39.9763 10.4598C39.9388 10.4973 39.9075 10.5474 39.8825 10.6099C38.8943 12.1609 37.8999 13.7182 36.8993 15.2817C34.0974 19.5971 31.4019 23.9562 28.8127 28.3591C28.7377 28.5217 28.6939 28.6905 28.6814 28.8657C28.6814 29.0032 28.6564 29.1221 28.6063 29.2221C28.5688 29.3222 28.475 29.3973 28.3249 29.4473C28.1873 29.4973 28.056 29.4723 27.9309 29.3722C27.8183 29.2722 27.7558 29.0846 27.7433 28.8094C27.7433 28.5467 27.8496 28.1902 28.0622 27.7399C31.1643 22.4114 34.3914 17.1767 37.7436 12.0358C38.0313 11.5855 38.319 11.1352 38.6067 10.685C38.7442 10.4848 38.7943 10.3597 38.7568 10.3097C38.7192 10.2597 38.5879 10.2597 38.3627 10.3097C36.0487 10.7725 33.7472 11.2728 31.4582 11.8107C31.208 11.8607 30.9641 11.917 30.7265 11.9796C30.5514 12.0171 30.4075 12.0734 30.2949 12.1484C30.1949 12.211 30.0886 12.2985 29.976 12.4111C29.9635 12.4111 29.951 12.4173 29.9385 12.4299ZM32.4338 10.3097C32.1712 10.5599 32.1524 10.6599 32.3776 10.6099C32.5902 10.5724 32.8091 10.5286 33.0342 10.4786C34.9605 10.0533 36.9118 9.67179 38.8881 9.33406C39.2008 9.29654 39.4134 9.234 39.526 9.14644C39.6386 9.05888 39.7512 8.90879 39.8637 8.69615C39.9138 8.60859 39.9763 8.50227 40.0514 8.37719C40.2515 8.07699 40.5454 7.63295 40.9332 7.04506C41.4835 6.20701 42.0652 5.30642 42.6781 4.34328C43.3035 3.38015 43.7976 2.59839 44.1603 1.99799C44.2479 1.81037 44.2416 1.7103 44.1415 1.69779C44.0415 1.67278 43.8851 1.70405 43.6725 1.79161C43.4598 1.87916 43.2347 1.98548 42.997 2.11057C42.7719 2.23565 42.578 2.35448 42.4154 2.46705C40.8394 3.50523 39.2946 4.63097 37.7811 5.84427C36.2801 7.05757 34.8042 8.28337 33.3532 9.52169C33.0405 9.78436 32.734 10.047 32.4338 10.3097Z" fill="black"/>
<path d="M33.7794 26.8018C33.6293 26.9394 33.4792 26.9644 33.3291 26.8768C33.179 26.8018 33.0727 26.6705 33.0102 26.4828C32.9351 26.2952 32.9476 26.1138 33.0477 25.9387C33.1102 25.8011 34.2672 23.9187 36.5187 20.2913C36.5312 20.2287 36.5625 20.1662 36.6125 20.1036C36.6626 20.0286 36.7126 19.9661 36.7626 19.916C38.2886 17.4519 39.9335 14.8502 41.6971 12.1109C43.4608 9.35908 45.0618 6.9575 46.5003 4.90615C47.9387 2.8548 48.9206 1.64151 49.446 1.26626C49.9588 1.14118 50.2715 1.20997 50.3841 1.47265C50.5092 1.73532 50.5154 2.0918 50.4029 2.5421C50.3028 2.97989 50.1652 3.40517 49.9901 3.81794C49.8275 4.2182 49.7087 4.49338 49.6336 4.64348C48.6455 6.63229 47.1069 9.06514 45.0181 11.942C42.9417 14.8189 40.4776 17.6083 37.6257 20.31C37.2254 20.948 36.8502 21.5358 36.5 22.0737C36.0497 22.7491 35.7495 23.237 35.5994 23.5372C35.4368 23.8374 35.5556 23.8374 35.9559 23.5372C36.3436 23.2495 37.1441 22.549 38.3574 21.4358C41.7972 18.2337 44.3176 16.3512 45.9187 15.7883C46.1688 15.7258 46.3314 15.757 46.4065 15.8821C46.494 15.9947 46.5566 16.1448 46.5941 16.3324C46.6066 16.3574 46.6129 16.3887 46.6129 16.4262C46.6629 16.8265 46.3127 17.2643 45.5622 17.7396C44.8117 18.2024 44.0237 18.6277 43.1981 19.0154C42.7603 19.2281 42.3976 19.4157 42.1099 19.5783C41.8973 19.7534 41.7409 19.9223 41.6408 20.0849C41.5533 20.2475 41.4595 20.4726 41.3594 20.7603C41.1593 21.2607 40.9842 21.8485 40.8341 22.524C40.684 23.1869 40.7027 23.7686 40.8904 24.2689C41.078 24.7692 41.5846 25.0131 42.4101 25.0006C42.5602 24.9881 42.6728 25.0194 42.7478 25.0944C42.8354 25.1695 42.8541 25.2508 42.8041 25.3383C42.7541 25.4259 42.6102 25.4822 42.3726 25.5072C41.1218 25.5447 40.3212 25.2383 39.971 24.5878C39.6208 23.9374 39.5958 23.0931 39.8959 22.0549C40.0085 21.6547 40.0335 21.442 39.971 21.417C39.921 21.3795 39.7271 21.5171 39.3894 21.8298C38.5138 22.6303 37.5632 23.4746 36.5375 24.3627C35.5243 25.2633 34.7426 25.9512 34.1922 26.4266C33.9545 26.6392 33.817 26.7643 33.7794 26.8018ZM41.1155 14.7564C40.5651 15.5944 40.2524 16.1073 40.1774 16.2949C40.1148 16.47 40.4526 16.1198 41.1905 15.2442C42.9292 13.2054 44.4177 11.2603 45.656 9.40911C46.8943 7.54539 47.8574 5.92557 48.5454 4.54967C48.8081 4.02432 48.9832 3.64908 49.0707 3.42393C49.1583 3.19878 49.1771 3.08621 49.127 3.08621C49.0895 3.08621 49.0082 3.16126 48.8831 3.31135C48.7705 3.44895 48.6329 3.63031 48.4703 3.85546C48.3077 4.08061 48.1451 4.30576 47.9825 4.53091C47.9075 4.63097 47.8387 4.72478 47.7761 4.81234C45.8749 7.46409 43.6547 10.7788 41.1155 14.7564Z" fill="black"/>
<path d="M48.6151 23.0118C47.7396 23.8624 46.914 24.1751 46.1385 23.9499C45.3755 23.7248 45.0065 23.0618 45.0315 21.9611C45.0565 20.8479 45.8383 19.3969 47.3768 17.6083C47.9647 16.9703 48.4338 16.6013 48.784 16.5013C49.0717 16.4012 49.2906 16.4137 49.4407 16.5388C49.5908 16.6514 49.597 16.8828 49.4594 17.233C49.1968 17.5082 48.9841 17.677 48.8215 17.7396C48.6589 17.8021 48.5276 17.8271 48.4275 17.8146C48.3775 17.8146 48.3274 17.8209 48.2774 17.8334C48.2399 17.8334 48.2024 17.8584 48.1648 17.9085C46.9765 19.3219 46.2511 20.4601 45.9884 21.3232C45.7382 22.1863 45.7758 22.7679 46.101 23.0681C46.4262 23.3808 46.864 23.3933 47.4143 23.1056C47.6645 22.9555 47.9459 22.6741 48.2586 22.2613C48.5713 21.8485 48.8278 21.442 49.0279 21.0418C49.0654 20.9792 49.0967 20.9292 49.1217 20.8917C49.1592 20.8416 49.178 20.7979 49.178 20.7603C49.178 20.7228 49.1467 20.679 49.0842 20.629C48.859 20.4038 48.6652 20.1099 48.5026 19.7472C48.3399 19.3719 48.3087 19.0342 48.4087 18.734C48.5088 18.5339 48.6964 18.4463 48.9716 18.4713C49.2468 18.4963 49.5095 18.6402 49.7596 18.9029C50.0098 19.1655 50.1411 19.5595 50.1536 20.0849C50.1787 20.4601 50.31 20.7228 50.5476 20.8729C50.7853 21.0105 51.048 21.0605 51.3357 21.023C51.6234 20.973 51.861 20.8604 52.0486 20.6853C52.2112 20.5352 52.3238 20.4977 52.3864 20.5727C52.4614 20.6352 52.4552 20.7478 52.3676 20.9104C52.28 21.073 52.0862 21.2231 51.786 21.3607C51.3106 21.5483 50.9417 21.6171 50.679 21.5671C50.4288 21.5171 50.2412 21.4483 50.1161 21.3607C50.0286 21.2857 49.9473 21.2544 49.8722 21.2669C49.7972 21.2669 49.7221 21.342 49.6471 21.4921C49.522 21.7172 49.3594 21.9799 49.1592 22.2801C48.9716 22.5803 48.7902 22.8242 48.6151 23.0118Z" fill="black"/>
<path d="M58.3662 17.7396C57.7658 18.34 56.9903 19.0717 56.0397 19.9348C55.0891 20.7853 54.1072 21.5984 53.094 22.3739C52.0808 23.1369 51.1928 23.6685 50.4298 23.9687C49.6543 24.2814 49.1539 24.1813 48.9288 23.6685C48.7912 23.2057 49.0351 22.4677 49.6605 21.4545C50.2734 20.4414 51.099 19.3969 52.1371 18.3212C53.1753 17.2455 54.2698 16.3699 55.4205 15.6945C56.5713 15.0191 57.6157 14.7814 58.5539 14.9815C58.804 15.0566 58.9729 15.1316 59.0604 15.2067C59.123 15.2442 59.1793 15.2755 59.2293 15.3005C59.2918 15.313 59.3606 15.3005 59.4357 15.263C59.5107 15.2129 59.6108 15.1254 59.7359 15.0003C60.2237 14.55 60.624 14.1372 60.9367 13.762C61.2494 13.3867 61.5808 12.9052 61.9311 12.3173C62.9943 10.5286 63.8386 9.15895 64.464 8.20832C65.3145 6.89496 66.2839 5.63163 67.3722 4.41833C68.4604 3.20504 69.411 2.26692 70.224 1.60398C70.4492 1.41636 70.7181 1.27877 71.0308 1.19121C71.3435 1.09115 71.6249 1.07864 71.8751 1.15369C72.1253 1.21623 72.2691 1.40385 72.3066 1.71656C72.2566 2.11682 71.8438 2.89233 71.0683 4.04309C69.855 5.80675 68.5542 7.45158 67.1658 8.97758C65.7899 10.4911 64.4828 11.8169 63.2444 12.9552C62.7316 13.4555 62.3376 13.8871 62.0624 14.2498C61.7872 14.6 61.462 15.0941 61.0868 15.732C59.8109 17.8459 58.5351 19.9285 57.2593 21.9799C55.9959 24.0312 54.9327 25.7386 54.0697 27.102C53.2191 28.4779 52.7688 29.1971 52.7188 29.2597C52.6312 29.3973 52.5249 29.4786 52.3998 29.5036C52.2872 29.5286 52.2059 29.4973 52.1559 29.4098C52.1059 29.3222 52.1371 29.1784 52.2497 28.9782C52.9627 27.7399 53.8508 26.1889 54.914 24.3252C56.49 21.5609 57.7846 19.3156 58.7978 17.5895C59.0604 17.1767 59.1605 16.9891 59.098 17.0266C59.0354 17.0641 58.8478 17.2393 58.5351 17.552C58.4851 17.6145 58.4288 17.677 58.3662 17.7396ZM66.3215 8.471C67.7474 6.99503 69.0733 5.36896 70.2991 3.59279C70.5868 3.155 70.7556 2.86106 70.8057 2.71096C70.8557 2.54835 70.8244 2.48581 70.7118 2.52334C70.6118 2.54835 70.4617 2.63591 70.2616 2.78601C70.0739 2.9236 69.8801 3.07995 69.6799 3.25507C69.4798 3.43018 69.3172 3.58028 69.1921 3.70536C68.5292 4.40582 67.7974 5.25638 66.9969 6.25704C66.2089 7.24519 65.5397 8.15829 64.9893 8.99634C64.5766 9.65928 64.3201 10.1096 64.2201 10.3472C64.12 10.5724 64.1325 10.6474 64.2576 10.5724C64.3827 10.4848 64.5766 10.3035 64.8392 10.0283C65.1144 9.75309 65.4084 9.44664 65.7211 9.10892C65.9212 8.88377 66.1213 8.67113 66.3215 8.471ZM58.4225 15.732C57.5595 15.632 56.5463 15.9947 55.383 16.8202C54.2198 17.6333 53.1253 18.5902 52.0996 19.6909C51.0864 20.7791 50.3735 21.6859 49.9607 22.4114C49.7731 22.7491 49.6668 22.9993 49.6417 23.1619C49.6042 23.337 49.7356 23.3433 50.0358 23.1807C50.9363 22.6803 52.1622 21.786 53.7132 20.4977C55.2642 19.1968 56.8715 17.7521 58.5351 16.1636C58.6602 16.051 58.7165 15.9634 58.704 15.9009C58.6914 15.8258 58.5976 15.7695 58.4225 15.732Z" fill="black"/>
<path d="M64.8715 14.0434C65.2092 14.0684 65.3655 14.1747 65.3405 14.3624C65.3155 14.5375 65.1904 14.7189 64.9653 14.9065C64.7526 15.0816 64.5212 15.2004 64.2711 15.263C64.0334 15.313 63.8583 15.2317 63.7457 15.0191C63.7207 14.9565 63.7269 14.9002 63.7645 14.8502C63.8145 14.7877 63.877 14.7376 63.9521 14.7001C64.0397 14.6501 64.1147 14.6063 64.1772 14.5688C64.2273 14.5562 64.2648 14.5437 64.2898 14.5312C64.3148 14.5187 64.3273 14.5062 64.3273 14.4937C64.3399 14.3561 64.3961 14.2435 64.4962 14.156C64.5963 14.0684 64.7214 14.0309 64.8715 14.0434ZM60.6875 22.9555C60.1996 22.9555 59.9119 22.7992 59.8244 22.4865C59.7368 22.1738 59.7806 21.7797 59.9557 21.3044C60.1183 20.8166 60.3497 20.31 60.6499 19.7847C60.9501 19.2468 61.2503 18.759 61.5505 18.3212C61.8507 17.8709 62.0884 17.527 62.2635 17.2893C62.3135 17.2017 62.3573 17.1392 62.3948 17.1017C62.3198 16.9015 62.3886 16.6826 62.6012 16.445C62.8138 16.1948 63.064 16.0135 63.3517 15.9009C63.6394 15.7758 63.8458 15.7946 63.9709 15.9572C64.0584 16.0948 64.0772 16.2261 64.0271 16.3512C63.9771 16.4763 63.9083 16.5951 63.8208 16.7077C63.7957 16.7327 63.7707 16.7639 63.7457 16.8015C63.2704 17.4769 62.7513 18.2337 62.1884 19.0717C61.6381 19.8973 61.2253 20.5915 60.9501 21.1543C60.7375 21.6422 60.8688 21.9111 61.3441 21.9611C61.832 22.0111 62.4574 21.9361 63.2204 21.736C63.9959 21.5358 64.7026 21.3232 65.3405 21.098C65.9909 20.8604 66.3787 20.704 66.5038 20.629C66.6414 20.5539 66.7477 20.5414 66.8227 20.5915C66.9103 20.6415 66.9478 20.7228 66.9353 20.8354C66.9228 20.9354 66.8352 21.0418 66.6726 21.1543C65.8596 21.6046 64.7964 22.0174 63.483 22.3927C62.1822 22.7679 61.2503 22.9555 60.6875 22.9555Z" fill="black"/>
<path d="M74.6601 20.1224C74.9978 19.9473 75.1979 19.9348 75.2605 20.0849C75.323 20.235 75.2042 20.4164 74.904 20.629C74.4287 20.9167 73.8158 21.1981 73.0653 21.4733C72.3273 21.736 71.6644 21.8173 71.0765 21.7172C70.4886 21.6046 70.1821 21.1293 70.1571 20.2913V20.1975C70.1696 20.0223 70.1571 19.9348 70.1196 19.9348C70.0821 19.9223 69.9758 19.9723 69.8006 20.0849C67.8619 21.3482 66.4359 22.1362 65.5228 22.4489C64.6222 22.7616 64.0906 22.7742 63.928 22.4865C63.7279 22.0862 63.9781 21.467 64.6785 20.629C65.379 19.7784 66.2796 18.9717 67.3803 18.2086C68.4935 17.4456 69.5567 16.9891 70.5699 16.839C71.5831 16.6764 72.296 17.0767 72.7088 18.0398C72.7463 18.1649 72.7276 18.2774 72.6525 18.3775C72.5775 18.4776 72.4774 18.5464 72.3523 18.5839C72.2272 18.6214 72.0834 18.5964 71.9208 18.5088C71.7707 18.4213 71.6644 18.315 71.6018 18.1899C71.6018 18.1649 71.6081 18.1399 71.6206 18.1148C71.6331 18.0898 71.6456 18.0648 71.6581 18.0398C71.6706 18.0148 71.6831 17.9898 71.6956 17.9647C71.7081 17.9397 71.7081 17.9147 71.6956 17.8897C71.3829 17.4644 70.8451 17.4019 70.0821 17.7021C69.3191 18.0023 68.5123 18.4713 67.6617 19.1092C66.8112 19.7472 66.0919 20.3538 65.5041 20.9292C64.9162 21.4921 64.641 21.836 64.6785 21.9611C64.7286 22.0862 65.2226 21.8798 66.1607 21.342C67.0989 20.8041 68.6374 19.7972 70.7763 18.3212C70.8889 18.2587 71.0014 18.2399 71.114 18.2649C71.2391 18.2774 71.3391 18.34 71.4142 18.4526C71.5018 18.6027 71.508 18.7528 71.433 18.9029C70.9576 19.9285 70.9014 20.5602 71.2641 20.7979C71.6393 21.0355 72.1709 21.0543 72.8589 20.8541C73.5594 20.654 74.1598 20.4101 74.6601 20.1224Z" fill="black"/>
</svg>
