<svg xmlns="http://www.w3.org/2000/svg" version="1.1" xmlns:xlink="http://www.w3.org/1999/xlink" xmlns:svgjs="http://svgjs.dev/svgjs" width="512px" height="512px"><svg width="512px" height="512px" viewBox="0 0 512 512" version="1.1" xmlns="http://www.w3.org/2000/svg" xmlns:xlink="http://www.w3.org/1999/xlink">
    <title>Artboard</title>
    <g id="SvgjsG1007" stroke="none" stroke-width="1" fill="none" fill-rule="evenodd">
        <path d="M111.953601,366 C66.478741,366 13.6295793,328.821229 13.6295793,256 C13.6295793,183.178772 68.0150539,146 115.026227,146 L133.154718,146 C180.780416,146 214.579299,181.335197 219.802762,224.044694 L186.00388,224.044694 C181.394941,198.849163 161.730137,176.111733 133.154718,176.111733 L114.718964,176.111733 C79.998294,176.111733 48.9647746,206.83799 48.9647746,256 C48.9647746,303.011174 76.6184058,335.888268 114.411702,335.888268 L132.847456,335.888268 C162.0374,335.888268 181.702204,311.921788 184.160305,287.648045 C185.696617,282.731844 183.853042,279.044693 177.707791,279.044693 L123.322316,279.044693 L123.322316,251.698325 L219.802762,251.698325 L219.802762,363.541899 L188.769243,363.541899 L188.769243,346.335196 C188.769243,341.111732 184.160305,338.960894 178.936841,343.569833 C169.411701,354.631285 151.590472,366 130.082093,366 L111.953601,366 Z M264.236344,363.541905 L264.236344,148.458095 L308.174891,148.458095 L375.158131,305.46928 C377.923494,312.536319 383.761483,312.229056 386.526846,305.46928 L455.046399,148.458095 L498.370421,148.458095 L498.370421,363.541905 L464.264276,363.541905 L465.493326,224.966487 C465.493326,216.97766 459.040812,215.74861 455.660924,222.815649 L394.515673,363.541905 L367.783829,363.541905 L307.560366,223.122912 C304.180478,216.055873 297.727964,217.284923 297.727964,224.966487 L298.342489,363.541905 L264.236344,363.541905 Z" id="SvgjsPath1006" fill="#000000"></path>
    </g>
</svg><style>@media (prefers-color-scheme: light) { :root { filter: none; } }
@media (prefers-color-scheme: dark) { :root { filter: none; } }
</style></svg>