<svg width="90" height="89" viewBox="0 0 90 89" fill="none" xmlns="http://www.w3.org/2000/svg">
<path d="M63.4639 2.76659C63.4639 1.23864 64.703 0 66.231 0H86.5189C88.0469 0 89.2854 1.23864 89.2854 2.76659V23.0549C89.2854 24.5829 88.0469 25.8215 86.5189 25.8215C86.5189 25.8215 80.5071 25.4662 76.682 25.8215C56.2894 27.7159 34.1499 56.3186 33.6463 55.7929C31.1871 54.5633 61.9933 31.5932 63.4639 10.4516C63.6727 7.45766 63.4639 2.76659 63.4639 2.76659Z" fill="#292929"/>
<path d="M25.8215 85.3105C25.8215 86.8385 24.5829 88.0769 23.0549 88.0769H2.76659C1.23865 88.0769 1.90724e-06 86.8385 1.77366e-06 85.3105L0 65.0219C-1.33577e-07 63.4939 1.23864 62.2555 2.76659 62.2555C2.76659 62.2555 8.77832 62.6108 12.6034 62.2555C32.9963 60.3613 55.1358 31.7583 55.6394 32.284C58.0985 33.5136 27.2925 56.4838 25.8215 77.6253C25.6132 80.6191 25.8215 85.3105 25.8215 85.3105Z" fill="#292929"/>
<path d="M63.4639 2.76659C63.4639 1.23864 64.703 0 66.231 0H86.5189C88.0469 0 89.2854 1.23864 89.2854 2.76659V23.0549C89.2854 24.5829 88.0469 25.8215 86.5189 25.8215C86.5189 25.8215 80.5071 25.4662 76.682 25.8215C56.2894 27.7159 34.1499 56.3186 33.6463 55.7929C31.1871 54.5633 61.9933 31.5932 63.4639 10.4516C63.6727 7.45766 63.4639 2.76659 63.4639 2.76659Z" fill="#6DA770"/>
<path d="M25.8215 85.3105C25.8215 86.8385 24.5829 88.0769 23.0549 88.0769H2.76659C1.23865 88.0769 1.90724e-06 86.8385 1.77366e-06 85.3105L0 65.0219C-1.33577e-07 63.4939 1.23864 62.2555 2.76659 62.2555C2.76659 62.2555 8.77832 62.6108 12.6034 62.2555C32.9963 60.3613 55.1358 31.7583 55.6394 32.284C58.0985 33.5136 27.2925 56.4838 25.8215 77.6253C25.6132 80.6191 25.8215 85.3105 25.8215 85.3105Z" fill="#6DA770"/>
<path d="M45.3089 16.4472C30.4548 16.4472 18.4127 28.4889 18.4126 43.343H5.5332V20.9214C5.5332 12.5925 12.2851 5.84058 20.614 5.84058H45.3089V16.4472Z" fill="#292929"/>
<path d="M45.1875 70.2393C60.0416 70.2393 72.0829 58.1976 72.0835 43.3435H84.9631V65.7651C84.9631 74.094 78.2111 80.8459 69.8823 80.8459H45.1875V70.2393Z" fill="#292929"/>
</svg>
